<?xml version="1.0" encoding="utf-8"?>
<!-- Generator: Adobe Illustrator 16.0.0, SVG Export Plug-In . SVG Version: 6.00 Build 0)  -->
<!DOCTYPE svg PUBLIC "-//W3C//DTD SVG 1.1//EN" "http://www.w3.org/Graphics/SVG/1.1/DTD/svg11.dtd">
<svg version="1.1" id="Layer_1" xmlns="http://www.w3.org/2000/svg" xmlns:xlink="http://www.w3.org/1999/xlink" x="0px" y="0px"
	 width="30px" height="30px" viewBox="0 0 30 30" enable-background="new 0 0 30 30" xml:space="preserve">
<g>
	<path fill="#FFFFFF" d="M30,11.781c0,4.961,0,9.922,0,14.883c-0.016,0.039-0.047,0.086-0.055,0.125
		c-0.305,1.375-1.398,2.273-2.805,2.273c-8.094,0-16.188,0.008-24.281,0c-1.633,0-2.852-1.234-2.859-2.859c0-4.656,0-9.313,0-13.977
		c0-1.625,1.234-2.844,2.859-2.852c0.734-0.008,1.461,0,2.195,0c0.203,0,0.406,0,0.602,0c0.547-4.766,4.32-8.156,8.781-8.422
		c2.148-0.125,4.125,0.414,5.891,1.656c2.344,1.641,3.648,3.922,4.008,6.766c0.984,0,1.953-0.016,2.914,0
		c1.195,0.016,2.258,0.82,2.609,1.953C29.914,11.484,29.953,11.633,30,11.781z M5.633,11.25c-0.875,0-1.766,0-2.656,0
		c-0.758,0-1.102,0.352-1.102,1.117c0,4.57,0,9.141,0,13.711c0,0.758,0.352,1.117,1.109,1.117c8.008,0,16.016,0,24.023,0
		c0.781,0,1.125-0.344,1.125-1.125c0-3.781,0-7.555,0-11.336c0-0.82,0-1.641,0-2.461c0-0.625-0.383-1.008-1-1.016
		c-0.266,0-0.523,0-0.789,0c-0.664,0-1.32,0-1.969,0c-0.141,0.695-0.281,1.359-0.422,2.039c0.055,0.023,0.125,0.055,0.195,0.086
		c1.227,0.586,1.859,1.859,1.578,3.18c-0.273,1.273-1.414,2.195-2.758,2.195c-5.313,0.008-10.625,0.008-15.938,0
		c-1.336,0-2.477-0.938-2.742-2.211c-0.281-1.328,0.383-2.617,1.617-3.18c0.063-0.023,0.117-0.063,0.156-0.078
		C5.914,12.609,5.781,11.953,5.633,11.25z M15,16.875c1.109,0,2.227,0.008,3.336-0.008c0.18,0,0.391-0.055,0.539-0.156
		c2.602-1.695,3.852-4.094,3.563-7.195c-0.414-4.453-4.734-7.523-9.078-6.531c-3.039,0.695-5.25,3.07-5.781,6.203
		c-0.484,2.883,0.938,5.938,3.508,7.5c0.172,0.102,0.398,0.164,0.594,0.172C12.789,16.883,13.898,16.875,15,16.875z M21.758,16.875
		c0.422,0,0.836,0.008,1.242,0c0.484-0.016,0.875-0.391,0.906-0.867c0.039-0.492-0.281-0.891-0.758-0.984
		C22.688,15.641,22.234,16.242,21.758,16.875z M6.852,15.023c-0.477,0.133-0.758,0.461-0.758,0.922c0,0.422,0.281,0.836,0.703,0.891
		c0.469,0.055,0.953,0.016,1.414,0.016C7.766,16.25,7.32,15.648,6.852,15.023z"/>
	<path fill="#FFFFFF" d="M22.5,24.375c0,0.508-0.422,0.93-0.93,0.938c-0.523,0.008-0.953-0.43-0.945-0.953
		c0.008-0.508,0.43-0.922,0.945-0.922C22.078,23.445,22.5,23.867,22.5,24.375z"/>
	<path fill="#FFFFFF" d="M25.305,25.313c-0.508,0-0.93-0.43-0.93-0.938c0-0.523,0.43-0.945,0.953-0.938
		c0.508,0.008,0.922,0.438,0.914,0.953C26.242,24.898,25.813,25.32,25.305,25.313z"/>
	<path fill="#FFFFFF" d="M15.953,14.969c-0.094,0.617-0.438,0.961-0.93,0.977c-0.5,0.008-0.852-0.32-0.977-0.938
		c-0.43,0-0.867,0-1.305,0c-0.594,0-1.016-0.391-1.023-0.938c0-0.547,0.422-0.938,1.016-0.938c0.875,0,1.758,0,2.633,0
		c0.617,0,1.039-0.398,1.039-0.945c-0.008-0.539-0.43-0.906-1.031-0.93c-0.523-0.016-1.063,0.008-1.57-0.117
		c-1.242-0.305-2.07-1.422-2.078-2.688c-0.008-1.25,0.836-2.359,2.063-2.711c0.078-0.023,0.148-0.039,0.227-0.063
		c0.203-0.703,0.492-0.992,1-0.984c0.477,0.008,0.797,0.32,0.945,0.938c0.43,0,0.867,0,1.313,0c0.594,0.008,1.016,0.406,1.008,0.945
		c-0.008,0.531-0.422,0.922-1,0.922c-0.875,0-1.758,0-2.633,0c-0.625,0-1.047,0.375-1.047,0.93s0.422,0.938,1.047,0.945
		c0.406,0.008,0.828-0.023,1.227,0.039c1.375,0.211,2.328,1.289,2.398,2.664c0.07,1.289-0.805,2.461-2.102,2.828
		C16.102,14.922,16.031,14.945,15.953,14.969z"/>
</g>
</svg>
