<?xml version="1.0" encoding="utf-8"?>
<!-- Generator: Adobe Illustrator 21.0.0, SVG Export Plug-In . SVG Version: 6.00 Build 0)  -->
<svg version="1.1" id="Layer_1" xmlns="http://www.w3.org/2000/svg" xmlns:xlink="http://www.w3.org/1999/xlink" x="0px" y="0px"
	 viewBox="0 0 394.3 391.8" style="enable-background:new 0 0 394.3 391.8;" xml:space="preserve">
<style type="text/css">
	.st0{fill:#EDEDED;}
</style>
<g>
	<path class="st0" d="M3.6,361.6c0-78.5,0-157,0-235.5c0.2-0.2,0.4-0.4,0.5-0.6c5.1-19.3,16.8-28.3,36.7-28.4
		c20.1,0,40.2-0.1,60.3,0.1c3.5,0,4.3-1,4.5-4.4c1.7-38.8,28.1-72,65.5-82.5c5.4-1.5,10.9-2.4,16.4-3.5c5.5,0,11,0,16.5,0
		c0.8,0.2,1.6,0.6,2.5,0.7c37.4,4.3,68.6,32.1,77.1,68.9c1.5,6.6,2.1,13.5,3.2,20.8c33.4,0,67.1,0,100.7,0c0,98.2,0,195.8,0,293.7
		c-1.8,0-3.3,0-4.8,0c-114,0-228,0-342,0c-1.2,0-2.5,0-3.7,0c-12.2-0.6-21.9-5.9-28.2-16.4C6.3,370.5,5.3,365.9,3.6,361.6z
		 M364.9,300.5c-1.5,0-2.9,0-4.2,0c-12.9,0-25.7,0.1-38.6-0.1c-5.1-0.1-10.3-0.4-15.2-1.6c-28.5-6.7-46.3-32.8-42.9-62.5
		c3-27.2,27.5-48.6,55.8-48.8c13.7-0.1,27.5,0,41.2,0c1.3,0,2.6,0,3.9,0c0-7.8,0-15,0-22.6c-1.7,0-3.2,0-4.6,0
		c-33.4,0-66.7,0-100.1-0.1c-3.3,0-5.8,0.9-8.4,3c-33.3,26.5-80,26.2-113-0.5c-1.7-1.3-4.2-2.3-6.3-2.3c-34-0.1-68-0.1-102-0.1
		c-1.3,0-2.6,0-4,0c0,15.3,0,30.1,0,45.1c15.3,0,30.2,0.1,45.2-0.1c1,0,2.3-1.6,2.8-2.7c6.5-13.5,20.8-21.5,34.9-19.5
		c16.8,2.4,28.9,15.6,29.8,32.6c0.8,15.3-10.3,30-25.4,33.9c-16,4.1-32.1-3.6-39.2-18.7c-1-2.2-2.1-2.9-4.4-2.9
		c-13.5,0.1-27,0.1-40.5,0.1c-1.1,0-2.1,0.2-3.2,0.2c0,15,0,29.7,0,44.7c1.3,0.1,2.3,0.2,3.4,0.2c31.4,0,62.7,0,94.1,0
		c1.6,0,3.2-0.3,4.8-0.7c10-3,20-6.2,30.1-9c2.4-0.7,3-1.8,3.1-4.1c1.1-18,17.6-32.4,35.6-31.2c15.1,1,27.8,11.7,31,26.1
		c3.3,14.7-3.2,29.7-16.3,37.1c-13.1,7.5-29.4,5.4-40.4-5.4c-1.8-1.8-3.2-2.1-5.5-1.4c-11.1,3.5-22.2,6.8-33.3,10.1
		c-2.4,0.7-4.9,1.1-7.3,1.1c-31.5,0.1-63,0-94.5,0c-1.6,0-3.1,0-4.7,0c0,7.8,0,15.1,0,22.4c113,0,225.6,0,338.4,0
		C364.9,315.4,364.9,308.2,364.9,300.5z M127.9,97.3c0.1,37.4,30.4,67.7,67.7,67.7c37.3,0,67.6-30.4,67.7-67.7
		c0-37.5-30.4-67.9-67.9-67.9C158.1,29.5,127.8,60,127.9,97.3z M365,346c-113.1,0-225.8,0-338.8,0c0,3.2,0,6.1,0,8.9
		c0,8.9,4.4,13.3,13.4,13.3c107.1,0,214.2,0,321.4,0c1.3,0,2.6,0,4,0C365,360.6,365,353.5,365,346z M364.8,210.2
		c-16.1,0-31.8-0.4-47.6,0.1c-10.8,0.4-19.6,5.8-25.5,14.9c-7.1,10.9-7.9,22.6-1.9,34.1c6.2,12,16.4,18.2,30,18.4
		c12.5,0.2,25,0,37.5,0.1c2.5,0,4.9,0,7.6,0C364.8,255.2,364.8,232.9,364.8,210.2z M364.9,142.2c0-7.6,0-14.8,0-22.4
		c-1.7,0-3.1,0-4.6,0c-23.3,0-46.7,0-70,0c-6.8,0-6.7,0-9.1,6.4c-2,5.3-4.4,10.5-6.7,16C304.6,142.2,334.6,142.2,364.9,142.2z
		 M26.4,142.2c30.2,0,60.3,0,90.7,0c-1.9-4-3.7-7.7-5.3-11.4c-1.5-3.5-1.8-8.6-4.4-10.3c-2.9-1.8-7.7-0.6-11.7-0.6c-19,0-38,0-57,0
		c-6.7,0-11.5,3.4-12.2,9.2C25.9,133.3,26.4,137.7,26.4,142.2z M105.4,232.6c6.1,0,11.2-5.1,11.2-11.2c0-6.1-5.1-11.2-11.2-11.3
		c-6.2,0-11.5,5.2-11.3,11.5C94.1,227.8,99.2,232.7,105.4,232.6z M195.6,277.8c6.2,0,11.2-4.9,11.3-11.1c0.1-6.2-5.2-11.5-11.4-11.4
		c-6.1,0.1-11.1,5.3-11.1,11.4C184.4,272.8,189.4,277.8,195.6,277.8z"/>
	<path class="st0" d="M168.8,98.2c0-4.5-0.1-9,0.1-13.5c0.1-1.2,0.9-2.8,1.9-3.5c9.8-6.7,19.7-13.2,29.5-19.8c1.7-1.1,2.9-1.2,4.7,0
		c9.8,6.7,19.7,13.1,29.5,19.8c1,0.7,1.9,2.3,1.9,3.5c0.2,9,0.2,18,0,27c0,1.2-0.9,2.9-1.9,3.5c-9.9,6.8-19.8,13.4-29.9,19.9
		c-0.9,0.6-2.9,0.6-3.9,0c-10.1-6.6-20.2-13.3-30.2-20.1c-0.9-0.6-1.6-2.2-1.6-3.3C168.7,107.2,168.8,102.7,168.8,98.2z M191.5,98.2
		c-0.8,2.8,0.7,4.3,2.9,5.7c8.3,5.4,8.3,5.5,16.4,0c4.6-3.1,4.6-8.4-0.1-11.5c-8.1-5.4-8-5.3-16.1-0.1
		C192.3,93.8,190.6,95.2,191.5,98.2z"/>
	<path class="st0" d="M338,233.9c0,7.4,0,14.6,0,22c-7.3,0-14.6,0-22.1,0c0-7.3,0-14.5,0-22C323.2,233.9,330.4,233.9,338,233.9z"/>
</g>
</svg>
