<?xml version="1.0" encoding="utf-8"?>
<!-- Generator: Adobe Illustrator 21.0.0, SVG Export Plug-In . SVG Version: 6.00 Build 0)  -->
<svg version="1.1" id="Layer_1" xmlns="http://www.w3.org/2000/svg" xmlns:xlink="http://www.w3.org/1999/xlink" x="0px" y="0px"
	 viewBox="0 0 389 389.3" style="enable-background:new 0 0 389 389.3;" xml:space="preserve">
<style type="text/css">
	.st0{fill:#EDEDED;}
</style>
<g>
	<path class="st0" d="M5,384c0-98.5,0-197,0-295.5c1.5-0.1,3-0.2,4.5-0.2c19.4,0,38.7,0,58.1,0c2.6,0,3.7-0.6,4.5-3.4
		c11.2-42.5,38.1-69.7,80.3-81.6c5.7-1.6,11.7-2.2,17.6-3.3c6,0,12,0,18,0c0.8,0.2,1.6,0.6,2.5,0.7C230.8,5.9,260,26.8,278,63.1
		c3.9,7.9,6.2,16.5,9.4,25.3c21.7,0,44,0,66.8,0c0,32.8,0,65.2,0,98.1c2.9,0,5.4-0.1,7.9,0c15.8,0.5,26.8,11.9,26.9,27.7
		c0.1,14.7,0.1,29.5,0,44.2c-0.1,15.7-11.6,27.2-27.2,27.4c-2.4,0-4.9,0-7.7,0c0,33.1,0,65.5,0,98.2C237.5,384,121.3,384,5,384z
		 M331.5,285.8c-4.3,0-8.2,0-12,0c-20.4-0.3-38.9-13.5-45.8-32.9c-6.9-19.2-1.2-41,14.2-54.2c9.7-8.4,21-12.4,33.7-12.3
		c3.3,0,6.6,0,9.8,0c0-7.5,0-14.3,0-21.4c-1.4,0-2.5,0-3.6,0c-16.9,0-33.7,0-50.6-0.1c-2.5,0-4,0.7-5.4,2.9
		c-13.3,20.9-31.5,35.9-54.7,44.7c-1.5,0.6-2.9,1.1-4.4,1.7c8.2,21.3,5.7,36.3-7.9,47.5c-12.2,10-29.3,11.1-42.6,2.5
		c-6.5-4.2-11.2-9.9-14.1-17.1c-4.3-10.8-3.2-21.2,2.2-31.6c-15.8-4.4-29.6-11.9-42.4-22.3c0,9.6,0.1,18.3-0.1,27.1
		c-0.1,2.9,0.7,4.3,3.5,5.5c16.8,7.4,25.2,26.1,19.9,43.6c-5.3,17.4-23.1,28.3-41,25.1C74.8,291.8,62.5,279,60.6,264
		c-2.1-16.7,6.3-31.7,21.4-38.3c1.9-0.8,3.3-1.4,3.3-4.1c-0.2-17.5-0.1-35,0-52.5c0-3.1-1.1-4.1-4.2-4.1
		c-16.9,0.1-33.7,0.1-50.6,0.1c-0.9,0-1.9,0.2-2.7,0.3c0,47.4,0,94.4,0,141.5c101.4,0,202.5,0,303.7,0
		C331.5,299.7,331.5,293,331.5,285.8z M179,197c48.2-0.1,87.2-39.3,87.1-87.4c-0.1-48.1-39.3-87.2-87.4-87
		c-47.9,0.1-87,39.2-86.9,87.2C91.8,157.8,131,197.1,179,197z M27.8,329.9c0,10.6,0,21,0,31.5c101.3,0,202.4,0,303.6,0
		c0-10.5,0-20.9,0-31.5C230,329.9,129,329.9,27.8,329.9z M366.5,236c0-6.7,0-13.5,0-20.2c0-5.8-1.1-6.9-6.7-6.9
		c-12.6,0-25.2,0-37.8,0c-2.6,0-5.3,0.2-7.8,0.8c-13.2,3.2-22.2,15.7-20.9,28.6c1.6,14.5,12.6,24.8,27,25c13.4,0.1,26.7,0,40.1,0
		c4.8,0,6.1-1.3,6.1-6.3C366.6,250,366.5,243,366.5,236z M284.5,142.3c15.5,0,31.2,0,47,0c0-10.5,0-20.8,0-31.2
		c-14.4,0-28.5,0-42.1,0C287.7,121.7,286.1,131.9,284.5,142.3z M73.3,142.4c-1.6-10.5-3.3-20.9-4.9-31.4c-13.4,0-27,0-40.6,0
		c0,10.6,0,21,0,31.4C43.4,142.4,58.6,142.4,73.3,142.4z M181.7,220.1c-7.6,0-13.8,6.2-13.8,13.8c0,7.4,6.1,13.5,13.5,13.6
		c7.7,0.1,13.9-6,14-13.6C195.5,226.5,189.3,220.2,181.7,220.1z M110.1,259c0.1-7.7-5.9-13.8-13.6-13.8c-7.7,0-13.8,6-13.8,13.7
		c0,7.5,5.9,13.5,13.4,13.7C103.8,272.7,110.1,266.7,110.1,259z"/>
	<path class="st0" d="M167.8,164.3c-10.9,0-21.1,0-31.6,0c0-7.5,0-14.7,0-22.3c3.6,0,7.1,0,11,0c0-21.7,0-43,0-64.7
		c-3.7,0-7.3,0-11,0c0-7.6,0-14.8,0-22.4c10.5,0,20.8,0,31.4,0c0-5.3,0-10.1,0-15.2c7.6,0,14.9,0,22.5,0c0,5,0,9.8,0,14.9
		c13.1,0.9,23.3,6.4,29.3,18c6,11.5,4.8,22.9-1.9,33.9c10.6,11,14.1,23.5,8.2,37.8c-5.4,13.1-14.8,18.4-35.3,20.2c0,4.9,0,9.8,0,15
		c-7.7,0-15,0-22.7,0C167.8,174.8,167.8,169.8,167.8,164.3z M170.2,141.9c8.8,0,17.2,0.1,25.7,0c5.5-0.1,9.7-4.3,10.1-9.7
		c0.4-5.4-3.4-10.6-9.1-10.9c-8.8-0.5-17.6-0.1-26.7-0.1C170.2,128,170.2,134.7,170.2,141.9z M170.2,98.3c7.4,0,14.6,0.3,21.8-0.1
		c4.8-0.2,8.5-4.9,8.7-9.7c0.2-4.7-2.9-9.9-7.5-10.3c-7.6-0.6-15.3-0.2-23-0.2C170.2,84.7,170.2,91.4,170.2,98.3z"/>
</g>
</svg>
