<?xml version="1.0" encoding="utf-8"?>
<!-- Generator: Adobe Illustrator 16.0.0, SVG Export Plug-In . SVG Version: 6.00 Build 0)  -->
<!DOCTYPE svg PUBLIC "-//W3C//DTD SVG 1.1//EN" "http://www.w3.org/Graphics/SVG/1.1/DTD/svg11.dtd">
<svg version="1.1" id="Layer_1" xmlns="http://www.w3.org/2000/svg" xmlns:xlink="http://www.w3.org/1999/xlink" x="0px" y="0px"
	 width="30px" height="30px" viewBox="0 0 30 30" enable-background="new 0 0 30 30" xml:space="preserve">
<g>
	<path fill="#FFFFFF" d="M30,12.419c0,5.858,0,11.715,0,17.581c-10,0-20,0-30,0c0-5.857,0-11.715,0-17.581c1.168,0,2.336,0,3.488,0
		c0-0.646,0-1.259,0-1.889c-0.588,0-1.151,0-1.715,0c0-0.588,0-1.16,0-1.756c0.588,0,1.16,0,1.723,0c0-0.597,0-1.16,0-1.748
		c-0.588,0-1.151,0-1.723,0c0-0.605,0-1.168,0-1.757c0.588,0,1.144,0,1.715,0c0-0.588,0-1.16,0-1.756c-0.588,0-1.16,0-1.723,0
		c0-0.596,0-1.16,0-1.748c0.58,0,1.152,0,1.74,0c0-0.604,0-1.176,0-1.756c0.588,0,1.168,0,1.756,0c0,4.134,0,8.269,0,12.395
		c0.613,0,1.177,0,1.773,0c0-1.798,0-3.571,0-5.344c1.781,0,3.546,0,5.335,0c0,1.798,0,3.579,0,5.353c0.596,0,1.16,0,1.748,0
		c0-2.966,0-5.916,0-8.865c1.773,0,3.513,0,5.277,0c0,2.966,0,5.916,0,8.865c0.589,0,1.16,0,1.749,0c0-4.143,0-8.277,0-12.403
		c1.757,0,3.513,0,5.269,0c0,4.134,0,8.269,0,12.419C27.639,12.419,28.815,12.419,30,12.419z M1.765,23.902
		c0.066,0.025,0.1,0.041,0.133,0.05c2.212,0.514,3.579,1.88,4.126,4.076c0.049,0.19,0.132,0.216,0.298,0.216
		c5.758,0,11.524,0,17.282,0c0.191,0,0.258-0.051,0.307-0.24c0.547-2.154,1.931-3.488,4.076-4.027
		c0.191-0.049,0.249-0.115,0.249-0.307c-0.009-1.641-0.009-3.28,0-4.921c0-0.19-0.05-0.257-0.249-0.307
		c-2.146-0.538-3.529-1.872-4.076-4.026c-0.049-0.19-0.115-0.24-0.307-0.24c-5.758,0.008-11.524,0.008-17.282,0
		c-0.19,0-0.257,0.05-0.306,0.249c-0.489,1.98-1.699,3.289-3.637,3.927c-0.199,0.066-0.406,0.115-0.622,0.166
		C1.765,20.314,1.765,22.104,1.765,23.902z M22.934,1.765c0,3.571,0,7.1,0,10.638c0.588,0,1.15,0,1.715,0c0-3.554,0-7.092,0-10.638
		C24.068,1.765,23.504,1.765,22.934,1.765z M15.898,5.286c0,2.386,0,4.756,0,7.109c0.589,0,1.16,0,1.724,0c0-2.378,0-4.739,0-7.109
		C17.043,5.286,16.479,5.286,15.898,5.286z M10.588,12.411c0-1.218,0-2.411,0-3.596c-0.613,0-1.202,0-1.781,0
		c0,1.209,0,2.394,0,3.596C9.403,12.411,9.983,12.411,10.588,12.411z M28.219,16.711c0-0.87,0-1.69,0-2.51c-0.861,0-1.698,0-2.561,0
		C26.072,15.502,26.926,16.313,28.219,16.711z M28.235,25.742c-1.136,0.165-2.461,1.466-2.526,2.477c0.844,0,1.682,0,2.526,0
		C28.235,27.382,28.235,26.562,28.235,25.742z M1.756,14.192c0,0.754,0,1.475,0,2.195c0,0.1,0,0.19,0,0.29
		c1.094-0.157,2.361-1.425,2.485-2.485C3.43,14.192,2.61,14.192,1.756,14.192z M1.765,28.227c0.854,0,1.666,0,2.485,0
		c-0.174-1.109-1.441-2.377-2.494-2.477c0,0.762,0,1.524,0,2.278C1.756,28.094,1.765,28.152,1.765,28.227z"/>
	<path fill="#FFFFFF" d="M17.622,19.445c-0.588,0-1.151,0-1.715,0c-0.024-0.083-0.042-0.158-0.066-0.232
		c-0.141-0.439-0.572-0.713-0.994-0.63c-0.431,0.083-0.746,0.473-0.721,0.903c0.017,0.455,0.381,0.828,0.854,0.837
		c0.837,0.024,1.541,0.331,2.071,0.985c1.076,1.326,0.621,3.307-0.928,4.035c-0.191,0.092-0.258,0.19-0.24,0.39
		c0.016,0.231,0,0.464,0,0.721c-0.581,0-1.152,0-1.757,0c0-0.257-0.008-0.514,0-0.771c0.008-0.174-0.05-0.248-0.207-0.323
		c-0.878-0.414-1.384-1.11-1.533-2.071c-0.017-0.091-0.017-0.19-0.017-0.307c0.588,0,1.16,0,1.74,0
		c0.017,0.074,0.042,0.149,0.058,0.224c0.141,0.439,0.572,0.713,0.994,0.63c0.43-0.083,0.746-0.473,0.721-0.902
		c-0.018-0.457-0.381-0.82-0.854-0.838c-0.853-0.024-1.558-0.34-2.087-1.01c-1.061-1.334-0.597-3.281,0.944-4.011
		c0.19-0.091,0.257-0.19,0.24-0.39c-0.017-0.231,0-0.463,0-0.721c0.58,0,1.151,0,1.757,0c0,0.258,0.008,0.514,0,0.771
		c-0.009,0.174,0.049,0.248,0.207,0.322C17.043,17.498,17.664,18.459,17.622,19.445z"/>
	<path fill="#FFFFFF" d="M7.051,20.34c0.58,0,1.143,0,1.723,0c0,0.571,0,1.135,0,1.723c-0.563,0-1.127,0-1.723,0
		C7.051,21.508,7.051,20.936,7.051,20.34z"/>
	<path fill="#FFFFFF" d="M22.892,22.071c-0.589,0-1.144,0-1.724,0c0-0.571,0-1.136,0-1.724c0.563,0,1.135,0,1.724,0
		C22.892,20.92,22.892,21.482,22.892,22.071z"/>
</g>
</svg>
