<?xml version="1.0" encoding="utf-8"?>
<!-- Generator: Adobe Illustrator 21.0.0, SVG Export Plug-In . SVG Version: 6.00 Build 0)  -->
<svg version="1.1" id="Layer_1" xmlns="http://www.w3.org/2000/svg" xmlns:xlink="http://www.w3.org/1999/xlink" x="0px" y="0px"
	 viewBox="0 0 257.8 258.2" style="enable-background:new 0 0 257.8 258.2;" xml:space="preserve">
<style type="text/css">
	.st0{fill:url(#SVGID_1_);}
	.st1{fill:url(#SVGID_2_);}
	.st2{fill:url(#SVGID_3_);}
	.st3{fill:url(#SVGID_4_);}
	.st4{fill:url(#SVGID_5_);}
	.st5{fill:url(#SVGID_6_);}
	.st6{fill:url(#SVGID_7_);}
	.st7{fill:url(#SVGID_8_);}
	.st8{fill:url(#SVGID_9_);}
	.st9{fill:url(#SVGID_10_);}
	.st10{fill:url(#SVGID_11_);}
	.st11{fill:url(#SVGID_12_);}
	.st12{opacity:0.13;fill:url(#SVGID_13_);enable-background:new    ;}
	.st13{fill:#F1F2F2;}
	.st14{fill:url(#SVGID_14_);}
	.st15{fill:#FFFFFF;}
</style>
<g>
	
		<radialGradient id="SVGID_1_" cx="-368.3053" cy="389.2936" r="1.292738e-02" gradientTransform="matrix(1.8344 0 0 -1.8342 804.1674 812.0822)" gradientUnits="userSpaceOnUse">
		<stop  offset="0" style="stop-color:#FFF5A8"/>
		<stop  offset="0.7228" style="stop-color:#FFF5A8"/>
	</radialGradient>
	<path class="st0" d="M128.6,98.1L128.6,98.1C128.5,98,128.5,98,128.6,98.1L128.6,98.1z"/>
	
		<radialGradient id="SVGID_2_" cx="-368.3053" cy="389.2936" r="1.292738e-02" gradientTransform="matrix(1.8344 0 0 -1.8342 804.1674 812.0822)" gradientUnits="userSpaceOnUse">
		<stop  offset="0" style="stop-color:#FFF5A8"/>
		<stop  offset="0.7228" style="stop-color:#FFF5A8"/>
	</radialGradient>
	<path class="st1" d="M128.6,98.1L128.6,98.1C128.5,98,128.5,98,128.6,98.1L128.6,98.1z"/>
	
		<radialGradient id="SVGID_3_" cx="-368.3053" cy="397.3842" r="1.094875e-02" gradientTransform="matrix(1.8344 0 0 -1.8342 804.1674 812.0822)" gradientUnits="userSpaceOnUse">
		<stop  offset="0" style="stop-color:#FFF5A8"/>
		<stop  offset="0.7228" style="stop-color:#FFF5A8"/>
	</radialGradient>
	<path class="st2" d="M128.5,83.2L128.5,83.2C128.6,83.2,128.6,83.2,128.5,83.2L128.5,83.2z"/>
	
		<radialGradient id="SVGID_4_" cx="-368.3053" cy="397.3842" r="1.094875e-02" gradientTransform="matrix(1.8344 0 0 -1.8342 804.1674 812.0822)" gradientUnits="userSpaceOnUse">
		<stop  offset="0" style="stop-color:#FFF5A8"/>
		<stop  offset="0.7228" style="stop-color:#FFF5A8"/>
	</radialGradient>
	<path class="st3" d="M128.5,83.2L128.5,83.2C128.6,83.2,128.6,83.2,128.5,83.2L128.5,83.2z"/>
	
		<radialGradient id="SVGID_5_" cx="-368.3053" cy="424.5896" r="7.999129e-03" gradientTransform="matrix(1.8344 0 0 -1.8342 804.1674 812.0822)" gradientUnits="userSpaceOnUse">
		<stop  offset="0" style="stop-color:#FFF5A8"/>
		<stop  offset="0.7228" style="stop-color:#FFF5A8"/>
	</radialGradient>
	<path class="st4" d="M128.5,33.3L128.5,33.3C128.6,33.3,128.6,33.3,128.5,33.3L128.5,33.3z"/>
	
		<radialGradient id="SVGID_6_" cx="-368.3053" cy="424.5896" r="7.999129e-03" gradientTransform="matrix(1.8344 0 0 -1.8342 804.1674 812.0822)" gradientUnits="userSpaceOnUse">
		<stop  offset="0" style="stop-color:#FFF5A8"/>
		<stop  offset="0.7228" style="stop-color:#FFF5A8"/>
	</radialGradient>
	<path class="st5" d="M128.5,33.3L128.5,33.3C128.6,33.3,128.6,33.3,128.5,33.3L128.5,33.3z"/>
	
		<radialGradient id="SVGID_7_" cx="-368.3053" cy="428.649" r="1.291760e-02" gradientTransform="matrix(1.8344 0 0 -1.8342 804.1674 812.0822)" gradientUnits="userSpaceOnUse">
		<stop  offset="0" style="stop-color:#FFF5A8"/>
		<stop  offset="0.7228" style="stop-color:#FFF5A8"/>
	</radialGradient>
	<path class="st6" d="M128.5,25.9L128.5,25.9C128.6,25.9,128.6,25.8,128.5,25.9L128.5,25.9z"/>
	
		<radialGradient id="SVGID_8_" cx="-368.3053" cy="428.649" r="1.291760e-02" gradientTransform="matrix(1.8344 0 0 -1.8342 804.1674 812.0822)" gradientUnits="userSpaceOnUse">
		<stop  offset="0" style="stop-color:#FFF5A8"/>
		<stop  offset="0.7228" style="stop-color:#FFF5A8"/>
	</radialGradient>
	<path class="st7" d="M128.5,25.9L128.5,25.9C128.6,25.9,128.6,25.8,128.5,25.9L128.5,25.9z"/>
	
		<linearGradient id="SVGID_9_" gradientUnits="userSpaceOnUse" x1="-448.8866" y1="-549.3372" x2="-268.8063" y2="-729.4174" gradientTransform="matrix(0.4571 -0.8894 -0.8894 -0.4571 -276.1335 -482.3174)">
		<stop  offset="0" style="stop-color:#7C7171"/>
		<stop  offset="0.6218" style="stop-color:#F1F1F1"/>
		<stop  offset="1" style="stop-color:#817676"/>
	</linearGradient>
	<ellipse class="st8" cx="128.5" cy="129.1" rx="127.3" ry="127.3"/>
	
		<linearGradient id="SVGID_10_" gradientUnits="userSpaceOnUse" x1="40.7127" y1="217.6873" x2="216.2873" y2="42.1127" gradientTransform="matrix(1 0 0 -1 0 259)">
		<stop  offset="0.3307" style="stop-color:#312828"/>
		<stop  offset="0.8765" style="stop-color:#CDCACA"/>
		<stop  offset="1" style="stop-color:#312828"/>
	</linearGradient>
	<ellipse class="st9" cx="128.5" cy="129.1" rx="124.2" ry="124.1"/>
	
		<linearGradient id="SVGID_11_" gradientUnits="userSpaceOnUse" x1="-1338.2721" y1="1747.2249" x2="-1183.208" y2="1592.1608" gradientTransform="matrix(-0.9386 0.345 0.345 0.9386 -1630.7747 -1003.1183)">
		<stop  offset="0" style="stop-color:#7C7171"/>
		<stop  offset="1" style="stop-color:#FFFFFF"/>
	</linearGradient>
	<path class="st10" d="M25.7,166.9C4.8,110.1,33.9,47.1,90.8,26.2s119.8,8.3,140.7,65.1s-8.2,119.8-65.1,140.7
		S46.6,223.7,25.7,166.9z"/>
	
		<radialGradient id="SVGID_12_" cx="-335.7856" cy="379.2506" r="57.9571" gradientTransform="matrix(1.8228 -0.2058 -0.2058 -1.8226 818.6198 751.2175)" gradientUnits="userSpaceOnUse">
		<stop  offset="2.131116e-08" style="stop-color:#58595B"/>
		<stop  offset="0.9236" style="stop-color:#272425"/>
		<stop  offset="1" style="stop-color:#231F20"/>
	</radialGradient>
	<ellipse class="st11" cx="128.5" cy="129.1" rx="106.3" ry="106.3"/>
	
		<linearGradient id="SVGID_13_" gradientUnits="userSpaceOnUse" x1="-92.9013" y1="-267.5359" x2="90.4616" y2="-267.5359" gradientTransform="matrix(0.8762 -0.482 -0.482 -0.8762 -22.5182 -117.6728)">
		<stop  offset="5.967124e-07" style="stop-color:#FFFFFF;stop-opacity:0.6"/>
		<stop  offset="1" style="stop-color:#FFFFFF"/>
	</linearGradient>
	<path class="st12" d="M160.7,27.7c-18.4-5.9-38.7-6.8-58.8-1.6C45,40.8,10.9,98.9,25.6,155.7c8.4,32.3,30.7,57.2,58.8,70.1
		C71.6,149.3,102.5,73.9,160.7,27.7z"/>
	<path class="st13" d="M205.6,181.5c3.4-7,9.8-5.4,9.8-5.4C211.9,183.3,205.6,181.5,205.6,181.5z M206.4,169.9
		C201,175.8,205,181,205,181C210.3,175.3,206.4,169.9,206.4,169.9z M222.6,162.6c0,0-6.6-0.5-8.7,7
		C213.8,169.6,220.3,170.3,222.6,162.6z M212.6,158.1c-4.3,6.7,0.5,11.2,0.5,11.2C217.4,162.7,212.6,158.1,212.6,158.1z
		 M227.2,148.1c0,0-6.6,0.6-7.4,8.4C219.8,156.5,226.3,156.1,227.2,148.1z M216.6,145.4c-3.1,7.4,2.4,10.9,2.4,10.9
		C222.1,149.1,216.6,145.4,216.6,145.4z M229.2,132.9c0,0-6.4,1.8-5.8,9.6C223.4,142.5,229.7,140.9,229.2,132.9z M218.3,132.1
		c-1.7,7.8,4.3,10.3,4.3,10.3C224.3,134.8,218.3,132.1,218.3,132.1z M228.5,117.5c0,0-6,2.8-4.1,10.4
		C224.5,127.9,230.4,125.2,228.5,117.5z M217.7,118.5c-0.4,8,6,9.4,6,9.4C224.1,120.1,217.7,118.5,217.7,118.5z M225.3,102.3
		c0,0-5.4,3.8-2.2,11C223.1,113.3,228.5,109.6,225.3,102.3z M214.8,105.3c1,7.9,7.6,8.2,7.6,8.2
		C221.3,105.7,214.8,105.3,214.8,105.3z M219.5,88c0,0-4.6,4.7-0.3,11.2C219.2,99.2,223.9,94.6,219.5,88z M209.6,92.7
		c2.4,7.6,8.9,6.8,8.9,6.8C216.2,92.1,209.6,92.7,209.6,92.7z M211.3,75c0,0-3.8,5.4,1.7,11.1C213,86,216.9,80.7,211.3,75z
		 M202.5,81.3c3.7,7.1,9.9,5.1,9.9,5.1C208.8,79.5,202.5,81.3,202.5,81.3z M201.1,63.5c0,0-2.8,6,3.6,10.6
		C204.7,74.2,207.5,68.3,201.1,63.5z M193.4,71.3c4.9,6.4,10.7,3.3,10.7,3.3C199.4,68.5,193.4,71.3,193.4,71.3z M189,54.2
		c0,0-1.7,6.4,5.4,9.8C194.4,64,196.2,57.7,189,54.2z M182.9,63.2c5.9,5.4,11.1,1.4,11.1,1.4C188.2,59.3,182.9,63.2,182.9,63.2z"/>
	<path class="st13" d="M41.6,176.1c0,0,6.4-1.7,9.8,5.4C51.5,181.5,45.2,183.3,41.6,176.1z M52.1,181c0,0,4-5.2-1.4-11.1
		C50.7,169.9,46.8,175.3,52.1,181z M43.3,169.6c-2.1-7.5-8.7-7-8.7-7C36.8,170.3,43.3,169.6,43.3,169.6z M44,169.3
		c0,0,4.8-4.4,0.5-11.2C44.5,158.1,39.7,162.7,44,169.3z M37.3,156.5c-0.8-7.8-7.4-8.4-7.4-8.4C30.8,156.1,37.3,156.5,37.3,156.5z
		 M38.1,156.3c0,0,5.5-3.5,2.4-10.9C40.5,145.4,35,149.1,38.1,156.3z M33.7,142.5c0.6-7.8-5.8-9.6-5.8-9.6
		C27.4,140.9,33.7,142.5,33.7,142.5z M34.5,142.4c0,0,6.1-2.5,4.3-10.3C38.8,132.1,32.8,134.8,34.5,142.4z M32.6,127.9
		c1.9-7.6-4.1-10.4-4.1-10.4C26.6,125.2,32.6,127.9,32.6,127.9z M33.4,128c0,0,6.4-1.4,6-9.4C39.4,118.5,33,120.1,33.4,128z
		 M34,113.3c3.2-7.1-2.2-11-2.2-11C28.6,109.6,34,113.3,34,113.3z M34.8,113.5c0,0,6.5-0.3,7.6-8.2
		C42.3,105.3,35.7,105.7,34.8,113.5z M37.9,99.2c4.4-6.5-0.3-11.2-0.3-11.2C33.2,94.6,37.9,99.2,37.9,99.2z M38.6,99.5
		c0,0,6.5,0.8,8.9-6.8C47.5,92.7,40.9,92.1,38.6,99.5z M44.1,86c5.4-5.6,1.7-11.1,1.7-11.1C40.2,80.7,44.1,86,44.1,86z M44.7,86.5
		c0,0,6.3,2,9.9-5.1C54.6,81.3,48.3,79.5,44.7,86.5z M52.4,74.2c6.3-4.6,3.6-10.6,3.6-10.6C49.6,68.3,52.4,74.2,52.4,74.2z M53,74.7
		c0,0,5.8,3,10.7-3.3C63.6,71.3,57.7,68.5,53,74.7z M62.7,64c7-3.4,5.4-9.8,5.4-9.8C60.9,57.7,62.7,64,62.7,64z M63.1,64.6
		c0,0,5.2,4,11.1-1.4C74.2,63.2,68.9,59.3,63.1,64.6z"/>
	
		<linearGradient id="SVGID_14_" gradientUnits="userSpaceOnUse" x1="128.5" y1="23.6" x2="128.5" y2="23.6" gradientTransform="matrix(1 0 0 -1 0 259)">
		<stop  offset="0" style="stop-color:#945A2A"/>
		<stop  offset="0.2061" style="stop-color:#A9772A"/>
		<stop  offset="0.2701" style="stop-color:#AE8032"/>
		<stop  offset="0.3723" style="stop-color:#BD9749"/>
		<stop  offset="0.5001" style="stop-color:#D4BD6E"/>
		<stop  offset="0.6307" style="stop-color:#F0EB9B"/>
		<stop  offset="1" style="stop-color:#9F6A2A"/>
	</linearGradient>
	<path class="st14" d="M128.5,235.4"/>
	<g>
		<path class="st15" d="M98.1,189.2c0.4-0.1,0.8-0.1,1.2-0.1s0.8,0,1.2,0.1l2.6,6.6l2.7-6.6c0.3-0.1,0.7-0.1,1.1-0.1
			c0.4,0,0.8,0,1.2,0.1l0.5,11.5c-0.4,0.1-0.8,0.1-1.2,0.1s-0.7,0-1.1-0.1l-0.3-7.8l-2.3,5.4c-0.1,0-0.3,0-0.5,0.1s-0.3,0-0.5,0
			c-0.1,0-0.3,0-0.4,0s-0.3,0-0.4-0.1l-2.2-5.5l-0.2,7.9c-0.3,0.1-0.7,0.1-1,0.1s-0.7,0-1.1-0.1L98.1,189.2z"/>
		<path class="st15" d="M114,189.2h6.5c0.1,0.3,0.1,0.6,0.1,1s0,0.7-0.1,1h-4.2v2.5h3.3c0.1,0.3,0.1,0.7,0.1,1s0,0.7-0.1,1h-3.3v3
			h4.3c0.1,0.3,0.1,0.6,0.1,1s0,0.7-0.1,1H114V189.2z"/>
		<path class="st15" d="M125.8,189.2c0.4-0.1,0.9-0.1,1.4-0.1s1-0.1,1.6-0.1c2,0,3.5,0.5,4.6,1.5c1.1,1,1.6,2.5,1.6,4.5
			s-0.5,3.5-1.6,4.4c-1.1,1-2.7,1.4-4.8,1.4c-0.5,0-1,0-1.5-0.1c-0.5,0-0.9-0.1-1.4-0.1v-11.4H125.8z M128.1,198.8
			c0.1,0,0.2,0,0.4,0c0.1,0,0.3,0,0.5,0c0.5,0,0.9-0.1,1.4-0.2c0.4-0.1,0.8-0.3,1.1-0.6c0.3-0.3,0.6-0.7,0.7-1.2
			c0.2-0.5,0.3-1.1,0.3-1.9s-0.1-1.4-0.3-1.9s-0.4-0.9-0.7-1.2c-0.3-0.3-0.7-0.5-1.1-0.6c-0.4-0.1-0.8-0.2-1.3-0.2
			c-0.1,0-0.3,0-0.5,0s-0.4,0-0.5,0L128.1,198.8L128.1,198.8z"/>
		<path class="st15" d="M142.4,189.2c0.2,0,0.4-0.1,0.6-0.1s0.4,0,0.7,0c0.2,0,0.4,0,0.6,0s0.4,0,0.7,0.1l3.6,11.5
			c-0.4,0.1-0.9,0.1-1.3,0.1s-0.8,0-1.2-0.1l-0.6-2.3h-3.8l-0.7,2.3c-0.4,0.1-0.8,0.1-1.1,0.1c-0.4,0-0.8,0-1.2-0.1L142.4,189.2z
			 M145,196.4l-1.3-4.8l-1.4,4.8H145z"/>
		<path class="st15" d="M153.1,189.2c0.4-0.1,0.8-0.1,1.1-0.1c0.4,0,0.8,0,1.2,0.1v9.5h4c0,0.2,0.1,0.4,0.1,0.5c0,0.2,0,0.3,0,0.5
			s0,0.3,0,0.5s0,0.3-0.1,0.5h-6.3L153.1,189.2L153.1,189.2z"/>
	</g>
</g>
<g>
	<path class="st15" d="M60,120.1c0.5-0.1,1-0.1,1.5-0.1s1,0,1.5,0.1l7,11.5v-11.5c0.6-0.1,1.2-0.1,1.7-0.1s1,0,1.5,0.1v18
		c-0.5,0.1-1,0.1-1.5,0.1s-1,0-1.5-0.1l-7-11.4v11.4c-0.5,0.1-1.1,0.1-1.6,0.1c-0.6,0-1.1,0-1.6-0.1L60,120.1L60,120.1z"/>
	<path class="st15" d="M84,138.4c-1.4,0-2.5-0.2-3.5-0.7s-1.8-1.1-2.4-1.9c-0.6-0.8-1.1-1.8-1.4-2.9s-0.5-2.4-0.5-3.7
		s0.2-2.6,0.5-3.7c0.3-1.1,0.8-2.1,1.4-3c0.6-0.8,1.4-1.5,2.4-2s2.1-0.7,3.5-0.7c1.3,0,2.5,0.2,3.5,0.7s1.8,1.1,2.4,2
		c0.6,0.8,1.1,1.8,1.4,3c0.3,1.1,0.5,2.4,0.5,3.7s-0.2,2.6-0.5,3.7c-0.3,1.1-0.8,2.1-1.4,2.9c-0.6,0.8-1.4,1.5-2.4,1.9
		C86.6,138.1,85.4,138.4,84,138.4z M84,135.3c2.6,0,3.9-2.1,3.9-6.2c0-2.1-0.3-3.6-0.9-4.6c-0.6-1-1.6-1.5-2.9-1.5
		c-2.6,0-3.9,2.1-3.9,6.2C80.1,133.2,81.4,135.3,84,135.3z"/>
	<path class="st15" d="M100.5,120.1c0.7-0.1,1.4-0.2,2.1-0.2c0.6-0.1,1.4-0.1,2.1-0.1c0.9,0,1.8,0.1,2.7,0.2s1.7,0.5,2.4,0.9
		s1.3,1,1.7,1.7s0.7,1.6,0.7,2.8c0,0.7-0.1,1.3-0.2,1.8c-0.2,0.5-0.4,1-0.6,1.3c-0.3,0.4-0.5,0.7-0.8,1s-0.6,0.5-0.8,0.7l-0.4,0.3
		l4.4,7.6c-0.3,0-0.7,0.1-1,0.1c-0.4,0-0.7,0-1.1,0c-0.6,0-1.3,0-1.9-0.1l-4.7-8.4l0.6-0.3c0.2-0.1,0.5-0.3,0.9-0.5
		c0.3-0.2,0.7-0.4,1-0.7s0.6-0.6,0.8-1s0.3-0.9,0.3-1.4c0-1-0.3-1.8-0.9-2.3c-0.6-0.5-1.4-0.7-2.3-0.7c-0.4,0-0.7,0-1,0.1v15.2
		c-0.3,0-0.6,0.1-0.9,0.1c-0.3,0-0.6,0-0.9,0s-0.6,0-0.9,0c-0.3,0-0.6-0.1-1-0.1v-18H100.5z"/>
	<path class="st15" d="M115.6,120.1h10.2c0.1,0.5,0.1,1,0.1,1.5c0,0.6-0.1,1.1-0.1,1.6h-6.6v3.9h5.2c0.1,0.5,0.1,1.1,0.1,1.6
		s0,1.1-0.1,1.6h-5.2v4.8h6.7c0.1,0.5,0.1,1,0.1,1.5c0,0.6,0,1.1-0.1,1.6h-10.4v-18.1H115.6z"/>
	<path class="st15" d="M127.6,120.1c0.6-0.1,1.3-0.1,2.1-0.1c0.3,0,0.6,0,0.9,0c0.3,0,0.6,0.1,0.9,0.1l2.6,13.5l3.1-13.5
		c0.3,0,0.6-0.1,0.9-0.1s0.6,0,0.9,0c0.5,0,1,0,1.6,0.1l3.2,13.9l2.6-13.9c0.5-0.1,1.1-0.1,1.6-0.1c0.3,0,0.7,0,1,0s0.6,0.1,0.9,0.1
		l-4.3,18c-0.6,0.1-1.2,0.1-1.9,0.1c-0.6,0-1.3,0-2.1-0.1l-2.9-12l-3.1,12c-0.4,0-0.8,0.1-1.1,0.1c-0.3,0-0.6,0-1,0
		c-0.5,0-1.1,0-1.7-0.1L127.6,120.1z"/>
	<path class="st15" d="M155.6,120.1c0.4,0,0.7-0.1,1-0.1s0.7,0,1.1,0c0.3,0,0.7,0,1,0s0.7,0.1,1,0.1l5.6,18c-0.7,0.1-1.4,0.1-2,0.1
		s-1.2,0-1.9-0.1l-1-3.6h-5.9l-1,3.6c-0.6,0.1-1.2,0.1-1.7,0.1c-0.6,0-1.2,0-1.8-0.1L155.6,120.1z M159.6,131.4l-2.1-7.5l-2.2,7.5
		H159.6z"/>
	<path class="st15" d="M167.5,120.1c0.7-0.1,1.4-0.2,2.1-0.2c0.6-0.1,1.4-0.1,2.1-0.1c0.9,0,1.8,0.1,2.7,0.2s1.7,0.5,2.4,0.9
		c0.7,0.4,1.3,1,1.7,1.7s0.7,1.6,0.7,2.8c0,0.7-0.1,1.3-0.2,1.8c-0.2,0.5-0.4,1-0.6,1.3c-0.3,0.4-0.5,0.7-0.8,1s-0.6,0.5-0.8,0.7
		l-0.4,0.3l4.4,7.6c-0.3,0-0.7,0.1-1,0.1c-0.4,0-0.7,0-1.1,0c-0.6,0-1.3,0-1.9-0.1l-4.7-8.4l0.6-0.3c0.2-0.1,0.5-0.3,0.9-0.5
		c0.3-0.2,0.7-0.4,1-0.7s0.6-0.6,0.8-1c0.2-0.4,0.3-0.9,0.3-1.4c0-1-0.3-1.8-0.9-2.3s-1.4-0.7-2.3-0.7c-0.4,0-0.7,0-1,0.1v15.2
		c-0.3,0-0.6,0.1-0.9,0.1s-0.6,0-0.9,0s-0.6,0-0.9,0s-0.6-0.1-1-0.1v-18H167.5z"/>
	<path class="st15" d="M182.7,120.1c0.7-0.1,1.4-0.2,2.2-0.2c0.8-0.1,1.6-0.1,2.6-0.1c3.1,0,5.5,0.8,7.2,2.4c1.6,1.6,2.5,3.9,2.5,7
		s-0.8,5.5-2.5,7c-1.7,1.5-4.1,2.2-7.4,2.2c-0.8,0-1.6,0-2.3-0.1c-0.7-0.1-1.4-0.1-2.1-0.2v-18H182.7z M186.4,135.2
		c0.1,0,0.3,0,0.6,0c0.2,0,0.5,0,0.8,0c0.8,0,1.5-0.1,2.1-0.3c0.7-0.2,1.2-0.5,1.7-1s0.9-1.1,1.1-1.9s0.4-1.8,0.4-3s-0.1-2.2-0.4-3
		s-0.7-1.4-1.1-1.9c-0.5-0.5-1-0.8-1.7-1c-0.6-0.2-1.3-0.3-2-0.3c-0.2,0-0.5,0-0.8,0s-0.6,0-0.8,0.1L186.4,135.2L186.4,135.2z"/>
</g>
</svg>
