<?xml version="1.0" encoding="utf-8"?>
<!-- Generator: Adobe Illustrator 21.0.0, SVG Export Plug-In . SVG Version: 6.00 Build 0)  -->
<svg version="1.1" id="Layer_1" xmlns="http://www.w3.org/2000/svg" xmlns:xlink="http://www.w3.org/1999/xlink" x="0px" y="0px"
	 viewBox="0 0 406 302.8" style="enable-background:new 0 0 406 302.8;" xml:space="preserve">
<style type="text/css">
	.st0{display:none;fill:#8B8B8B;}
</style>
<g>
	<rect x="-304" y="-207.4" class="st0" width="1109" height="724"/>
	<g>
		<path d="M398,296.1c-127.6,0-255.3,0-383.5,0c-0.2-2.5-0.4-4.6-0.4-6.8c0-55,0.1-109.9-0.2-164.9c0-5.3,1.8-7.2,6.5-8.7
			c101.4-34,202.8-68.2,304.2-102.3c1.9-0.6,3.8-1.2,6.5-2c1.9,5.3,3.7,10.4,5.4,15.5c9.6,28.4,19.2,56.7,28.5,85.1
			c1.5,4.6,3.6,6.4,8.4,6.1c8.2-0.5,16.5-0.3,24.7-0.5C398,177.1,398,236.6,398,296.1z M309,272c22.4,0,43.5,0,64.9,0
			c0-43.6,0-86.7,0-129.8c-21.8,0-43.1,0-65.1,0c0,7.5,0,14.4,0,21.4c-8.8,0-16.8,0-25.6,0c0-7.4,0-14.3,0-21.6
			c-82.1,0-163.4,0-245.1,0c0,43.4,0,86.5,0,130c81.8,0,163.1,0,245.5,0c0-7.6,0-14.6,0-21.6c8.9,0,16.8,0,25.5,0
			C309,257.7,309,264.6,309,272z M92.5,116.3c0,0.6,0.1,1.1,0.1,1.7c21,0,42-0.9,62.9,0.3c22.1,1.3,40.5-10.9,61.4-14.9
			c1.4,3.8,2.3,7.4,4,10.7c0.8,1.6,2.9,3.7,4.5,3.7c11.4,0.3,22.9,0.2,35,0.2c-1-4-1.7-7.3-2.6-11.1c6.9-2.3,13.4-4.5,20.6-6.9
			c1.7,5.1,2.9,9.6,4.8,13.9c0.7,1.7,2.8,3.9,4.4,3.9c17.9,0.3,35.8,0.2,54.7,0.2c-8.8-26.3-17.3-51.4-25.9-77
			c-17.6,6-34.5,11.7-51.7,17.5c1.8,6,3.5,11.3,5.2,17c-7.3,2.4-13.8,4.5-20.6,6.8c-2.2-6-4-11-6-16.6
			C192.5,82.6,142.5,99.5,92.5,116.3z"/>
		<path d="M68.9,196.6c0-7.5,0-14.5,0-22.1c57,0,113.8,0,171.1,0c0,7.2,0,14.3,0,22.1C183.2,196.6,126.4,196.6,68.9,196.6z"/>
		<path d="M69.1,240c0-7.5,0-14.8,0-22.7c16.9,0,33.6,0,50.7,0c0,7.6,0,15,0,22.7C102.9,240,86.3,240,69.1,240z"/>
		<path d="M308.5,219.5c-8.5,0-16.4,0-24.8,0c0-8.4,0-16.5,0-25c8.3,0,16.2,0,24.8,0C308.5,202.6,308.5,210.7,308.5,219.5z"/>
		<path d="M188.6,217.2c0,7.7,0,14.9,0,22.6c-8.4,0-16.4,0-25,0c0-7.3,0-14.7,0-22.6C171.7,217.2,179.7,217.2,188.6,217.2z"/>
		<path d="M215.3,217c8.3,0,16.2,0,24.6,0c0,7.6,0,14.9,0,22.8c-8,0-16,0-24.6,0C215.3,232.5,215.3,225.1,215.3,217z"/>
	</g>
</g>
</svg>
