<?xml version="1.0" encoding="utf-8"?>
<!-- Generator: Adobe Illustrator 16.0.0, SVG Export Plug-In . SVG Version: 6.00 Build 0)  -->
<!DOCTYPE svg PUBLIC "-//W3C//DTD SVG 1.1//EN" "http://www.w3.org/Graphics/SVG/1.1/DTD/svg11.dtd">
<svg version="1.1" id="Layer_1" xmlns="http://www.w3.org/2000/svg" xmlns:xlink="http://www.w3.org/1999/xlink" x="0px" y="0px"
	 width="30px" height="30px" viewBox="0 0 30 30" enable-background="new 0 0 30 30" xml:space="preserve">
<g>
	<path fill="#FFFFFF" d="M0.166,11.984c0.1-0.63,0.166-1.259,0.29-1.881c0.895-4.59,4.449-7.97,9.105-8.608
		c3.579-0.489,6.785,0.381,9.461,2.875c1.806,1.682,2.784,3.828,3.206,6.239c0.323,1.823,0.199,3.612-0.397,5.369
		c-0.009,0.024-0.009,0.058-0.017,0.124c0.356,0.107,0.721,0.225,1.086,0.332c2.029,0.604,4.059,1.209,6.098,1.814
		c0.662,0.199,0.994,0.721,0.754,1.25c-0.1,0.225-0.324,0.448-0.539,0.564c-0.87,0.463-1.756,0.887-2.668,1.334
		c0.074,0.082,0.141,0.156,0.207,0.215c0.473,0.473,0.945,0.937,1.408,1.417c0.432,0.438,0.439,0.978,0.009,1.408
		c-0.845,0.854-1.69,1.698-2.544,2.535c-0.43,0.423-0.961,0.423-1.383,0c-0.539-0.538-1.077-1.077-1.633-1.64
		c-0.091,0.174-0.166,0.314-0.24,0.463c-0.373,0.746-0.736,1.483-1.109,2.229c-0.225,0.439-0.531,0.631-0.961,0.598
		c-0.406-0.033-0.696-0.291-0.838-0.763c-0.596-1.997-1.192-3.985-1.789-5.981c-0.025-0.083-0.05-0.166-0.083-0.266
		c-0.058,0.025-0.107,0.05-0.149,0.074c-4.283,2.917-9.792,2.262-13.504-0.985c-2.179-1.905-3.43-4.3-3.704-7.2
		c-0.008-0.066-0.033-0.133-0.05-0.19C0.166,12.871,0.166,12.423,0.166,11.984z M20.008,15.563c0.033-0.1,0.066-0.174,0.092-0.257
		c0.406-1.234,0.555-2.502,0.397-3.794c-0.216-1.749-0.754-3.372-1.839-4.772c-1.773-2.295-4.16-3.405-7.026-3.521
		C9.586,3.136,7.705,3.658,5.99,4.793c-3.281,2.162-4.466,6.471-3.745,9.677c1.467,6.471,9.172,9.37,14.516,5.443
		c0.207-0.149,0.249-0.273,0.165-0.522c-0.355-1.143-0.695-2.286-1.027-3.43c-0.041-0.157-0.082-0.323-0.066-0.48
		c0.066-0.597,0.613-0.961,1.202-0.787C18.028,14.967,19.006,15.265,20.008,15.563z M20.597,25.19
		c0.314-0.63,0.588-1.177,0.861-1.731c0.356-0.704,1.052-0.82,1.607-0.273c0.505,0.506,1.011,1.002,1.517,1.516
		c0.115,0.117,0.198,0.249,0.265,0.332c0.489-0.488,0.911-0.912,1.351-1.351c-0.58-0.571-1.177-1.168-1.781-1.772
		c-0.605-0.605-0.497-1.276,0.266-1.657c0.547-0.273,1.093-0.547,1.697-0.854c-2.775-0.829-5.492-1.641-8.252-2.469
		C18.956,19.706,19.76,22.406,20.597,25.19z"/>
	<path fill="#FFFFFF" d="M12.212,7.792c0.456,0,0.87,0,1.284,0c0.605,0,1.019,0.373,1.027,0.903
		c0.008,0.538-0.414,0.944-1.019,0.944c-0.895,0.008-1.798-0.008-2.692,0.008c-0.456,0.008-0.804,0.323-0.878,0.771
		c-0.074,0.414,0.149,0.845,0.563,1.002c0.157,0.058,0.34,0.066,0.505,0.083c0.422,0.025,0.854-0.008,1.268,0.058
		c1.309,0.232,2.171,1.26,2.245,2.61c0.066,1.276-0.696,2.386-1.947,2.75c-0.315,0.092-0.373,0.232-0.356,0.514
		c0.017,0.498-0.249,0.861-0.654,0.979c-0.58,0.165-1.152-0.232-1.193-0.846c-0.008-0.148,0-0.307,0-0.48
		c-0.108-0.008-0.191-0.017-0.273-0.025c-0.332,0-0.655,0-0.986,0c-0.638-0.008-1.069-0.381-1.061-0.936
		c0-0.555,0.422-0.92,1.068-0.92c0.862,0,1.715,0.008,2.577-0.008c0.795-0.017,1.243-0.779,0.854-1.408
		c-0.19-0.298-0.472-0.431-0.829-0.448c-0.505-0.017-1.027,0.008-1.524-0.091c-1.268-0.265-2.137-1.384-2.146-2.668
		C8.037,9.325,8.89,8.198,10.124,7.883c0.191-0.05,0.249-0.116,0.241-0.307c-0.008-0.182,0-0.373,0.049-0.539
		c0.125-0.439,0.547-0.688,1.019-0.621c0.415,0.058,0.754,0.414,0.779,0.845C12.22,7.419,12.212,7.585,12.212,7.792z"/>
	<path fill="#FFFFFF" d="M5.733,11.504c0.497,0,0.919,0.431,0.911,0.936c-0.008,0.489-0.422,0.903-0.903,0.911
		c-0.489,0.008-0.928-0.431-0.928-0.919C4.813,11.918,5.236,11.496,5.733,11.504z"/>
	<path fill="#FFFFFF" d="M16.859,11.504c0.498,0,0.92,0.422,0.912,0.928c-0.008,0.489-0.414,0.911-0.903,0.919
		s-0.919-0.422-0.928-0.919C15.94,11.918,16.363,11.496,16.859,11.504z"/>
</g>
</svg>
