<?xml version="1.0" encoding="utf-8"?>
<!-- Generator: Adobe Illustrator 21.0.0, SVG Export Plug-In . SVG Version: 6.00 Build 0)  -->
<svg version="1.1" id="Layer_1" xmlns="http://www.w3.org/2000/svg" xmlns:xlink="http://www.w3.org/1999/xlink" x="0px" y="0px"
	 viewBox="0 0 384 387" style="enable-background:new 0 0 384 387;" xml:space="preserve">
<style type="text/css">
	.st0{fill:#FFFFFF;}
</style>
<g>
	<path d="M364.5,384.2c-115,0-230,0-345,0c-15-6.4-20.7-17.9-19.7-34c0.8-12.9,0.2-26,0.2-39c0-11.3,4.7-19.8,15-24.7
		c5.9-2.8,9.9-6.9,9.8-13.7c-0.1-6.4-4.1-10.3-9.7-13C4.8,254.9,0,246.4,0,235.2c0-14.2,0-28.5,0-42.7c0-20.3,10-30.6,30.4-30.1
		c8.1,0.2,14.5-1.5,19.4-8.2c1.6-2.2,3.8-3.9,5.8-5.9c46.1-46.1,92.2-92.2,138.3-138.3c12.5-12.5,27.3-13.4,39.1-2.1
		C244.6,19,255.8,30.4,267,41.8c7.4,7.6,9.7,16.8,6.1,26.9c-2.2,6.1-2.3,11.8,2.5,16.6c4.6,4.6,10.2,4.6,16,2.5
		c11.1-3.9,20.6-1,28.7,7.1c8.7,8.7,17,17.7,26.1,25.9c12.8,11.5,19.1,24.1,9.5,41.1c14.6,0,22.7,8,28.1,19.6c0,20.5,0,41,0,61.5
		c-4.1,8.2-9.7,14.4-18.3,18.6c-9.1,4.6-9.1,18.1,0,22.7c8.5,4.3,14.2,10.4,18.3,18.6c0,20.5,0,41,0,61.5
		C380.1,373.7,373.5,380.2,364.5,384.2z M282,185.2c-1.6-0.2-2.6-0.4-3.5-0.4c-82.9,0-165.9,0-248.8-0.1c-5.7,0-7.3,2.3-7.2,7.6
		c0.2,13.5-0.2,27,0.3,40.5c0.1,2.7,2.3,6.5,4.7,7.9c12.9,7.4,20,18.2,19.9,32.9c-0.1,14.3-7.2,25-19.8,32.2
		c-2.4,1.4-4.6,5.1-4.7,7.8c-0.5,13,0.2,26-0.4,39c-0.3,7.4,2.3,9.3,9.4,9.2c80.9-0.2,161.9-0.1,242.8-0.1c2.4,0,4.8,0,7.3,0
		C282,302.3,282,244.1,282,185.2z M169.3,66.5c31.3,31.3,61.9,62.1,92.8,92.7c1.8,1.8,5.2,2.7,7.9,2.8c13.2,0.3,26.5-0.7,39.7,0.4
		c11,0.9,18.3-3.2,25-11.1c3.3-3.9,3.7-6.4,0-10c-9.9-9.6-19.3-19.6-29.3-28.9c-2-1.9-6.3-2.9-9-2.2c-14,3.6-26.5,1.3-36.7-8.9
		c-10.4-10.4-12.9-23.1-9-37.3c0.7-2.3,0.1-6.1-1.4-7.8c-9.9-10.5-20.4-20.6-30.5-30.9c-2.9-2.9-5.2-3.1-8.1,0
		C197,39,183.4,52.5,169.3,66.5z M305.1,361.6c17.7,0,34.6,0.2,51.5-0.3c1.7,0,4.6-4.2,4.6-6.5c0.4-14,0.5-28,0-42
		c-0.1-2.5-2.4-5.9-4.7-7.1c-12.9-7.3-20-18.2-19.9-32.9c0.1-14.3,7.3-25,19.9-32.1c2.3-1.3,4.6-4.7,4.7-7.1c0.4-14,0.1-28,0.3-42
		c0.1-5.3-2.1-7.1-7.2-6.9c-7.7,0.2-15.5,0.1-23.2,0.1c-8.6,0-17.2,0-26.1,0C305.1,244.1,305.1,302.2,305.1,361.6z M75.9,161.6
		c51.8,0,103.5,0,155,0c-26.1-26.1-51.9-52-77.4-77.6C127.8,109.7,101.9,135.6,75.9,161.6z"/>
	<path class="st0" d="M384,303.2c-4.1-8.2-9.8-14.3-18.3-18.6c-9.1-4.6-9.1-18.1,0-22.7c8.5-4.3,14.2-10.4,18.3-18.6
		C384,263.2,384,283.2,384,303.2z"/>
	<path class="st0" d="M364.5,384.2c9.1-3.9,15.6-10.4,19.5-19.5c0,6.5,0,13,0,19.5C377.5,384.2,371,384.2,364.5,384.2z"/>
	<path d="M79.5,236.8c0-7.4,0-14.3,0-21.6c56.2,0,112,0,168.5,0c0,7,0,14.1,0,21.6C192,236.8,136.2,236.8,79.5,236.8z"/>
	<path d="M79.5,281.9c0-7.3,0-14.2,0-21.6c56.1,0,112,0,168.4,0c0,7,0,14,0,21.6C192,281.9,136.2,281.9,79.5,281.9z"/>
	<path d="M79.6,327c0-7.3,0-14.2,0-21.6c56.1,0,111.9,0,168.4,0c0,7,0,14,0,21.6C192,327,136.2,327,79.6,327z"/>
</g>
</svg>
