<?xml version="1.0" encoding="utf-8"?>
<!-- Generator: Adobe Illustrator 16.0.0, SVG Export Plug-In . SVG Version: 6.00 Build 0)  -->
<!DOCTYPE svg PUBLIC "-//W3C//DTD SVG 1.1//EN" "http://www.w3.org/Graphics/SVG/1.1/DTD/svg11.dtd">
<svg version="1.1" id="Layer_1" xmlns="http://www.w3.org/2000/svg" xmlns:xlink="http://www.w3.org/1999/xlink" x="0px" y="0px"
	 width="30px" height="30px" viewBox="0 0 30 30" enable-background="new 0 0 30 30" xml:space="preserve">
<g>
	<path fill="#FFFFFF" d="M0,25.582C0,17.693,0,9.804,0,1.916C0.018,1.888,0.037,1.87,0.045,1.843c0.31-1.247,1.165-1.92,2.438-1.92
		c8.344,0,16.688,0,25.042,0c1.465,0,2.465,0.992,2.465,2.457c0,7.571,0,15.15,0,22.72c0,1.465-1,2.467-2.456,2.467
		c-1.256,0-2.521,0-3.776,0c-0.1,0-0.209,0-0.309,0c-0.101,1-0.564,1.719-1.457,2.138c-0.19,0.091-0.4,0.137-0.6,0.2
		c-4.259,0-8.517,0-12.776,0c-0.063-0.018-0.127-0.045-0.191-0.063c-0.91-0.245-1.51-0.819-1.774-1.729
		c-0.055-0.172-0.073-0.354-0.109-0.545c-0.119,0-0.228,0-0.328,0c-1.292,0-2.575,0.009-3.867,0c-1.01-0.01-1.893-0.637-2.211-1.574
		C0.082,25.855,0.045,25.719,0,25.582z M8.462,13.043c-0.019,0.055-0.027,0.073-0.027,0.091c0,3.212,0,6.424-0.009,9.636
		c0,0.173,0.082,0.2,0.218,0.237c2.603,0.6,4.204,2.211,4.813,4.813c0.045,0.191,0.119,0.229,0.292,0.229
		c0.837-0.01,1.683,0,2.521,0c0.063,0,0.127-0.01,0.182-0.019c0.619-2.794,2.312-4.478,5.096-5.087c0-0.091,0-0.173,0-0.264
		c0-1.319,0-2.639,0-3.958c0-0.446,0.219-0.782,0.592-0.929c0.646-0.254,1.283,0.21,1.283,0.947c0,2.211,0,4.412,0,6.623
		c0,0.101,0,0.21,0,0.338c0.108,0,0.19,0,0.264,0c1.265,0,2.538,0,3.803,0c0.455,0,0.619-0.155,0.619-0.619
		c0-7.562,0-15.114,0-22.675c0-0.455-0.154-0.619-0.619-0.619c-8.334,0-16.679,0-25.013,0c-0.455,0-0.61,0.155-0.61,0.619
		c0,7.562,0,15.114,0,22.675c0,0.455,0.155,0.609,0.619,0.619c1.265,0,2.539,0,3.804,0c0.082,0,0.164-0.01,0.246-0.019
		c0-4.222,0-8.417,0-12.639c-0.337,0-0.655,0.009-0.974,0c-0.455-0.018-0.837-0.382-0.883-0.828
		c-0.045-0.455,0.237-0.874,0.683-1.001c0.118-0.037,0.246-0.037,0.373-0.037c6.16,0,12.32,0,18.48,0c0.072,0,0.137,0,0.209,0
		c0.719,0.064,1.102,0.883,0.683,1.465c-0.228,0.318-0.546,0.4-0.919,0.4c-5.123,0-10.255,0-15.377,0
		C8.708,13.043,8.59,13.043,8.462,13.043z M11.583,28.039c-0.209-1.438-1.738-2.957-3.139-3.139c0,0.883-0.009,1.756,0,2.639
		c0,0.272,0.209,0.5,0.473,0.5C9.809,28.049,10.691,28.039,11.583,28.039z M18.408,28.039c0.891,0,1.773,0.01,2.647,0
		c0.272,0,0.481-0.182,0.491-0.455c0.018-0.892,0.01-1.793,0.01-2.684C20.091,25.137,18.727,26.492,18.408,28.039z"/>
	<path fill="#FFFFFF" d="M15.159,22.397c-0.992-0.009-1.783-0.19-2.511-0.609c-2.284-1.319-2.521-4.268-0.455-5.915
		c1.802-1.446,4.65-1.21,6.133,0.492c1.656,1.92,0.883,4.758-1.547,5.695c-0.256,0.101-0.52,0.174-0.783,0.229
		C15.669,22.352,15.332,22.37,15.159,22.397z M14.996,20.541c0.6-0.027,1.165-0.154,1.647-0.537
		c0.883-0.691,0.892-1.955,0.027-2.656c-0.893-0.729-2.457-0.729-3.349,0c-0.874,0.709-0.864,1.965,0.018,2.656
		C13.831,20.387,14.404,20.514,14.996,20.541z"/>
	<path fill="#FFFFFF" d="M10.282,6.474c0,1.592-1.201,2.812-2.785,2.812c-1.574,0-2.784-1.21-2.793-2.802
		c0-1.593,1.201-2.812,2.785-2.812C9.081,3.671,10.282,4.882,10.282,6.474z M8.426,6.474C8.417,5.964,7.98,5.537,7.479,5.555
		C6.988,5.564,6.579,5.992,6.57,6.492c0,0.51,0.437,0.938,0.928,0.938C8.007,7.411,8.435,6.975,8.426,6.474z"/>
	<path fill="#FFFFFF" d="M17.779,6.547c-0.063,1.638-1.301,2.812-2.884,2.739c-1.583-0.073-2.748-1.319-2.685-2.875
		c0.064-1.638,1.292-2.812,2.885-2.739C16.679,3.744,17.844,4.991,17.779,6.547z M15.014,5.546c-0.5-0.009-0.937,0.428-0.937,0.928
		s0.427,0.946,0.928,0.937c0.492,0,0.91-0.418,0.928-0.919C15.941,6.001,15.505,5.555,15.014,5.546z"/>
	<path fill="#FFFFFF" d="M25.287,6.52c-0.037,1.61-1.247,2.803-2.821,2.775c-1.583-0.027-2.784-1.265-2.748-2.848
		c0.036-1.61,1.247-2.803,2.821-2.775S25.314,4.937,25.287,6.52z M22.493,7.42c0.501,0,0.937-0.437,0.937-0.937
		c0-0.492-0.418-0.919-0.909-0.938c-0.501-0.009-0.938,0.418-0.946,0.919C21.564,6.975,21.992,7.411,22.493,7.42z"/>
	<path fill="#FFFFFF" d="M23.422,15.382c0,0.5-0.438,0.937-0.929,0.937c-0.501,0-0.929-0.446-0.919-0.946
		c0.009-0.491,0.428-0.919,0.919-0.919C22.984,14.445,23.422,14.882,23.422,15.382z"/>
</g>
</svg>
